<svg viewBox="0 0 169 45" xmlns="http://www.w3.org/2000/svg"><path fill-rule="evenodd" clip-rule="evenodd" d="M167.89 18.037l.017.018c1.019 2.21 1.329 4.557.915 6.922-.397 2.52-1.416 4.472-3.038 5.766.034.07.069.156.086.225l.034.086c.415 1.364.536 2.555.363 3.66-.432 2.78-2.434 4.8-5.49 5.559-.984.242-2.123.362-3.418.362-1.347 0-2.866-.138-4.592-.397-2.486-.38-4.696-1.19-6.578-2.4a19.001 19.001 0 01-1.139-.81c-.155.483-.363.949-.604 1.398a8.957 8.957 0 01-3.867 3.85l-.087.034c-2.244 1.088-4.989 1.64-8.165 1.64-3.332 0-6.543-.95-9.547-2.848-1.657-1.053-2.607-2.832-2.607-4.886 0-1.588.691-3.263 2.227-5.42.017-.027.035-.048.052-.07.017-.021.034-.043.052-.069a11.32 11.32 0 01-.432-.794c-.673-1.364-1.07-2.918-1.157-4.627-.077.009-.159.022-.241.035a6.842 6.842 0 01-2.383-.035l.777 6.681c.086.812.121 1.416.121 1.9-.017.794-.19 1.605-.535 2.485l-.052.121c-.915 2.124-2.987 3.401-6.163 3.764-.501.051-.984.086-1.433.086-1.571 0-2.883-.345-3.971-1.036l-.017-.017c-.725 1.605-2.089 2.883-4.022 3.694-1.934.794-4.523 1.191-7.924 1.191-2.52 0-4.834-.466-6.871-1.363-2.141-.933-3.867-2.262-5.128-3.902-1.588-2.037-2.606-4.281-3.072-6.681l-2.366 4.057c-.621 1.036-1.502 1.899-2.641 2.607-1.208.742-2.503 1.122-3.815 1.122a7.466 7.466 0 01-3.522-.898c-1.019-.535-1.778-1.156-2.348-1.899l-.5-.621-4.006-6.854-.449 7.268c-.051.794-.12 1.398-.207 1.882-.155.794-.483 1.605-1.001 2.4-1.157 1.795-3.211 2.71-6.094 2.71-.294 0-.604-.017-.915-.035-1.485-.086-2.693-.449-3.643-1.001-1.156.38-2.52.587-4.126.483-3.522-.207-6.612-1.881-9.167-4.954-.069-.07-.138-.156-.207-.242-1.226 1.036-3.004 1.554-5.3 1.554-.932 0-1.778-.087-2.538-.26l-.207.312-.069.103c-.587.829-2.348 3.315-5.282 3.505-1.468.086-3.022-.415-4.869-1.606l-.5-.31-.121-.087c-.113-.079-.226-.165-.348-.259l-.205-.155c-1.07 1.778-3.107 2.762-6.06 2.952-.293.017-.586.034-.862.034-2.814 0-4.817-.95-5.94-2.83l-.085-.139c-.415-.742-.691-1.467-.83-2.175a16.751 16.751 0 01-.206-1.882L.052 13.014c-.051-.812-.069-1.416-.034-1.9.052-.725.224-1.467.535-2.26l.07-.156c.966-2.21 3.124-3.436 6.421-3.643 2.262-.155 4.023.259 5.37 1.26.966.708 2.14 2.037 2.416 4.385.052.38.104.812.138 1.399l.26 4.126c1.07-.656 2.123-1.019 3.21-1.088 1.588-.104 2.918.518 3.902 1.226v-.017c.086-.726.31-1.45.673-2.228l.104-.207c.12-.224.259-.431.397-.621a5.026 5.026 0 01-.432-.725c-.397-.794-.639-1.554-.742-2.314-.052-.5-.086-1.087-.086-1.899 0-.811.017-1.415.086-1.899.104-.742.345-1.502.725-2.278l.017-.052c1.105-2.14 3.35-3.228 6.647-3.228 4.074 0 5.818 1.743 6.577 3.245.415.811.674 1.571.777 2.348.052.5.086 1.088.086 1.899 0 .811-.017 1.416-.086 1.899-.103.777-.362 1.536-.777 2.348-.12.224-.259.449-.431.69.621.829 1.156 1.986 1.243 3.574.017.259.034.535.034.863 2.728-2.296 5.732-3.366 8.943-3.176l.638.051.156-2.451c.052-.794.12-1.398.207-1.882.155-.76.449-1.519.915-2.296.535-.898 1.588-2.089 3.556-2.572.915-.225 1.968-.294 3.228-.225 1.26.087 2.314.277 3.194.622 1.485.57 2.642 1.657 3.229 3.056.241.604.414 1.156.517 1.709a6.392 6.392 0 011.675-.225c1.692 0 3.211.639 4.299 1.813.587.621 1.122 1.433 1.674 2.486l1.727 3.315 1.812-3.47c.328-.57.57-.967.76-1.26a6.49 6.49 0 011.744-1.762c1-.707 2.21-1.07 3.573-1.07 1.295 0 2.642.449 4.247 1.398 2.33 1.399 3.367 3.004 3.78 4.403 2.366-1.347 5.06-2.038 8.08-2.038 3.229 0 5.697.812 7.562 1.934.051-.224.121-.466.207-.69l.017-.052c.846-2.262 2.952-3.591 6.232-3.97 1.606-.19 2.987-.087 4.144.31 1.225-.812 2.399-1.278 3.608-1.416.828-.086 1.553-.12 2.192-.103.639.017 1.329.103 2.037.241a6.649 6.649 0 013.28 1.64c.95.864 1.571 2.055 1.865 3.54 1.951-.95 4.35-1.416 7.302-1.416 2.469 0 4.972.57 7.493 1.709.5.224.949.483 1.329.76a13.623 13.623 0 013.712-3.66c3.297-2.227 7.112-3.022 11.342-2.365 6.284.966 9.15 4.557 10.462 7.388zM23.065 32.953l-5.594-4.056 3.781-3.59c.932-.881 1.381-1.623 1.347-2.245-.052-.604-.535-1.433-1.468-2.451-.932-1.019-1.726-1.502-2.4-1.467-.673.034-1.45.448-2.33 1.225l-.466.346c-.466.431-1.14 1.156-2.054 2.174-.915 1.019-1.606 1.744-2.055 2.175l-.811-12.67c-.017-.518-.07-.88-.104-1.122-.069-.794-.345-1.363-.828-1.709-.57-.414-1.485-.587-2.763-.5-1.709.103-2.727.535-3.055 1.277-.173.414-.26.777-.276 1.088-.018.31 0 .776.034 1.38l1.52 23.925c.051.622.103 1.07.155 1.381.069.311.207.656.414 1.036.414.69 1.467.984 3.142.88 1.692-.12 2.693-.535 3.004-1.242.19-.415.293-.777.31-1.088.018-.31 0-.76-.034-1.38l-.19-3.073c.708.483 1.726 1.312 3.09 2.503 1.364 1.173 2.365 2.002 3.004 2.468l.415.259c1.087.708 1.916 1.036 2.503 1.001.69-.034 1.467-.656 2.296-1.83.76-1.139 1.105-2.037 1.07-2.675-.017-.276-.12-.553-.31-.829-.208-.276-.64-.673-1.347-1.19zm9.737-22.132c-.207.38-.552.656-1.053.83-.5.155-1.174.24-2.02.24-.846 0-1.52-.085-2.02-.24-.5-.156-.863-.45-1.053-.847-.207-.397-.328-.76-.362-1.053-.035-.31-.052-.76-.052-1.38 0-.622.017-1.071.052-1.382.034-.31.155-.639.345-1.019.38-.725 1.416-1.087 3.125-1.087 1.674 0 2.693.362 3.038 1.087.207.397.345.76.38 1.054.034.31.052.76.052 1.38 0 .622-.018 1.07-.052 1.382-.052.293-.173.639-.38 1.036zm-6.525 6.042c-.035.31-.052.76-.052 1.38v14.054c0 .64.017 1.105.052 1.399.051.293.155.639.345 1.036.38.725 1.416 1.087 3.09 1.087 1.71 0 2.745-.345 3.09-1.036.208-.397.346-.742.38-1.053.035-.31.052-.76.052-1.38V18.33c0-.5 0-.898-.035-1.157-.034-.777-.276-1.346-.725-1.726-.535-.45-1.45-.674-2.727-.674-1.71 0-2.745.346-3.125 1.036-.19.397-.31.743-.345 1.054zm25.17-6.818c.224-.38.586-.622 1.104-.76.518-.12 1.191-.172 2.037-.12.846.051 1.502.172 2.003.362.5.19.829.5 1.001.898.173.414.276.777.294 1.087.017.311.017.777-.018 1.381l-1.45 23.859c-.034.621-.086 1.07-.138 1.381-.052.31-.207.639-.449 1.001-.449.69-1.588.984-3.435.88-1.847-.12-2.849-.828-2.97-2.14-1.19 1.209-2.796 1.76-4.799 1.64-2.4-.138-4.523-1.33-6.37-3.539-1.847-2.21-2.676-4.713-2.503-7.492.172-2.78 1.312-5.162 3.418-7.148 2.106-1.985 4.35-2.9 6.733-2.762 1.968.121 3.47.88 4.471 2.279l.518-8.39c.035-.604.086-1.07.138-1.381.052-.328.19-.673.414-1.036zm-7.821 21.32c.656.76 1.467 1.174 2.451 1.226.984.052 1.83-.241 2.52-.932.691-.673 1.071-1.45 1.123-2.313.052-.863-.207-1.692-.794-2.469-.587-.777-1.398-1.208-2.469-1.277-1.07-.07-1.933.241-2.624.949-.69.69-1.053 1.485-1.105 2.365-.034.863.26 1.692.898 2.452zm39.69-13.517c0-.932-.708-1.813-2.09-2.641-.932-.57-1.657-.846-2.175-.846-.535 0-.95.12-1.277.345-.328.224-.57.449-.708.673-.138.225-.362.604-.656 1.105l-5.248 10.082-5.248-10.082c-.363-.725-.725-1.26-1.053-1.623-.328-.362-.794-.535-1.381-.535s-1.381.294-2.4.88c-1.398.83-2.089 1.71-2.089 2.677 0 .552.259 1.277.794 2.157l8.321 14.26.363.45c.224.293.587.586 1.105.862s1.07.415 1.64.415c.57 0 1.156-.173 1.743-.536.587-.362 1.019-.776 1.278-1.225l8.286-14.208c.536-.95.795-1.675.795-2.21zm21.337 8.737c0 1.64-.414 2.848-1.226 3.642-.811.794-1.709 1.174-2.71 1.174h-9.495c0 .742.449 1.38 1.33 1.881.88.5 1.76.76 2.64.76 1.554 0 2.763-.156 3.643-.484l.45-.155c.638-.293 1.173-.449 1.605-.449.846 0 1.588.604 2.209 1.795.346.725.518 1.33.518 1.847 0 2.383-2.848 3.557-8.528 3.557-1.968 0-3.729-.346-5.265-1.019-1.537-.673-2.728-1.588-3.591-2.71-1.675-2.158-2.52-4.575-2.52-7.25 0-3.366 1.087-6.059 3.262-8.061 2.175-2.02 4.886-3.021 8.149-3.021 3.711 0 6.439 1.312 8.165 3.918.915 1.416 1.364 2.935 1.364 4.575zm-8.442 1.19c1.019 0 1.52-.43 1.52-1.277 0-.621-.242-1.104-.708-1.484-.467-.38-1.14-.553-2.003-.553-.863 0-1.726.363-2.59 1.053-.863.708-1.277 1.468-1.277 2.262h5.058zm25.516-12.794a2.772 2.772 0 00-1.347-.673 12.158 12.158 0 00-1.433-.19c-.431-.018-.967.017-1.588.086-.622.07-1.312.38-2.089.932-.76.553-1.26.967-1.485 1.26-.224.294-.397.536-.5.743-.052-.449-.242-.863-.587-1.26-.466-.57-1.502-.76-3.09-.57-1.71.19-2.694.673-2.987 1.433-.138.397-.225.742-.225 1.053 0 .31.035.777.104 1.38l1.623 13.967c.042.302.071.567.095.786.016.144.029.268.043.37.138.76.449 1.296.915 1.624.604.397 1.536.518 2.814.362 1.674-.207 2.676-.656 2.987-1.398.172-.432.258-.794.258-1.105 0-.31-.034-.777-.103-1.381l-.967-8.356c-.086-.707.156-1.364.725-1.933.553-.57 1.209-.898 1.916-.984.708-.087 1.295-.035 1.761.12.466.156.933.208 1.416.156.967-.104 1.64-.69 2.02-1.76.38-1.054.535-2.02.431-2.867-.086-.846-.328-1.45-.707-1.795zm3.194 22.789c-.501-.328-.76-.829-.76-1.52 0-.69.501-1.743 1.52-3.158.293-.45.759-.674 1.415-.674s1.537.328 2.659.984c1.122.656 2.14.984 3.038.984 1.623 0 2.434-.328 2.434-.966 0-.501-.897-.88-2.676-1.123-1.674-.241-3.349-.863-5.006-1.881-.777-.484-1.416-1.226-1.916-2.262-.501-1.018-.76-2.244-.76-3.66 0-4.212 2.9-6.318 8.684-6.318 1.899 0 3.85.449 5.852 1.364.932.431 1.398.966 1.398 1.605s-.293 1.433-.88 2.365c-.587.932-1.191 1.399-1.795 1.399-.328 0-.915-.208-1.779-.605a6.713 6.713 0 00-2.831-.604c-1.571 0-2.365.294-2.365.88 0 .795.915 1.33 2.728 1.554 1.761.19 3.47.69 5.127 1.52.777.38 1.416 1.018 1.934 1.933s.776 2.072.776 3.47c0 1.381-.258 2.572-.776 3.54-.518.966-1.243 1.708-2.176 2.174-1.709.829-3.849 1.243-6.422 1.243-2.572 0-5.058-.742-7.423-2.244zm38.255-9.961c.915-.656 1.502-1.796 1.761-3.418.259-1.623.035-3.194-.621-4.696-1.312-2.849-3.815-4.558-7.475-5.127-3.211-.501-6.06.086-8.511 1.743-2.469 1.657-3.954 4.143-4.472 7.475-.414 2.642.052 5.145 1.382 7.545.673 1.243 1.709 2.313 3.124 3.228 1.399.898 3.09 1.502 5.041 1.813 5.628.88 8.615.138 8.977-2.21.087-.5 0-1.14-.224-1.9-.414-1.277-1.053-1.985-1.899-2.123-.432-.069-.984 0-1.657.19l-.467.087c-.914.172-2.14.155-3.677-.087-.863-.138-1.692-.518-2.486-1.156-.794-.622-1.139-1.312-1.018-2.055l9.374 1.45c.967.138 1.916-.103 2.848-.76zm-5.075-4.592c-.121.846-.691 1.19-1.692 1.036l-4.989-.777c.121-.794.656-1.468 1.605-2.037.95-.57 1.848-.795 2.711-.657.863.139 1.502.415 1.899.864.397.448.552.966.466 1.57z" /></svg>
